<?xml version="1.0" encoding="UTF-8"?>
<!DOCTYPE svg PUBLIC "-//W3C//DTD SVG 1.1//EN" "http://www.w3.org/Graphics/SVG/1.1/DTD/svg11.dtd">
<svg xmlns="http://www.w3.org/2000/svg" version="1.1" width="120px" height="120px"
  style="shape-rendering:geometricPrecision; text-rendering:geometricPrecision; image-rendering:optimizeQuality; fill-rule:evenodd; clip-rule:evenodd"
  xmlns:xlink="http://www.w3.org/1999/xlink">
  <g>
    <path style="opacity:1" fill="#4caf50"
      d="M 6.5,-0.5 C 25.5,-0.5 44.5,-0.5 63.5,-0.5C 60.3107,0.166135 56.9773,0.832801 53.5,1.5C 60.378,1.95871 67.0447,3.12538 73.5,5C 72.4019,5.76971 72.4019,6.60305 73.5,7.5C 53.4908,-0.83417 39.4908,5.16583 31.5,25.5C 27.7558,33.2 26.7558,41.2 28.5,49.5C 30.0449,57.916 32.7115,65.916 36.5,73.5C 36.7394,75.4672 36.4061,77.3005 35.5,79C 37.1656,79.9969 38.6656,81.4969 40,83.5C 40.7581,85.7695 40.5914,87.9361 39.5,90C 40.8029,93.044 43.1362,94.2107 46.5,93.5C 47.5523,94.5305 48.8857,95.1971 50.5,95.5C 56.1718,94.2343 61.8384,94.2343 67.5,95.5C 66.5525,96.9779 65.2191,97.9779 63.5,98.5C 59.9581,98.1872 56.6248,98.5206 53.5,99.5C 52.7109,99.7828 52.0442,100.283 51.5,101C 52.5822,102.33 53.2488,103.83 53.5,105.5C 56.6893,106.166 60.0227,106.833 63.5,107.5C 63.0431,108.298 62.3764,108.631 61.5,108.5C 57.491,108.014 55.6577,109.68 56,113.5C 58.494,116.086 60.994,116.086 63.5,113.5C 62.6201,115.389 62.6201,117.389 63.5,119.5C 44.5,119.5 25.5,119.5 6.5,119.5C 3.45031,117.451 1.11698,114.784 -0.5,111.5C -0.5,76.5 -0.5,41.5 -0.5,6.5C 1.5,3.83333 3.83333,1.5 6.5,-0.5 Z" />
  </g>
  <g>
    <path style="opacity:1" fill="#4caf50"
      d="M 63.5,-0.5 C 79.5,-0.5 95.5,-0.5 111.5,-0.5C 114.784,1.11698 117.451,3.45031 119.5,6.5C 119.5,41.5 119.5,76.5 119.5,111.5C 118.196,112.987 117.03,114.654 116,116.5C 114.348,117.399 112.848,118.399 111.5,119.5C 95.5,119.5 79.5,119.5 63.5,119.5C 62.6201,117.389 62.6201,115.389 63.5,113.5C 63.5,112.5 63.5,111.5 63.5,110.5C 64.1174,110.611 64.6174,110.944 65,111.5C 65.9431,107.263 67.4431,103.263 69.5,99.5C 70.6283,98.7379 71.7949,98.0712 73,97.5C 73.6829,92.4924 75.1829,87.8257 77.5,83.5C 83.0673,72.9715 87.5673,61.9715 91,50.5C 92.1704,42.7762 91.337,35.4429 88.5,28.5C 86.1727,19.5187 81.1727,12.5187 73.5,7.5C 72.4019,6.60305 72.4019,5.76971 73.5,5C 67.0447,3.12538 60.378,1.95871 53.5,1.5C 56.9773,0.832801 60.3107,0.166135 63.5,-0.5 Z" />
  </g>
  <g>
    <path style="opacity:1" fill="rgba(4,9,3,0)"
      d="M 111.5,-0.5 C 114.167,-0.5 116.833,-0.5 119.5,-0.5C 119.5,1.83333 119.5,4.16667 119.5,6.5C 117.451,3.45031 114.784,1.11698 111.5,-0.5 Z" />
  </g>
  <g>
    <path style="opacity:1" fill="rgba(4,7,2,0)"
      d="M -0.5,-0.5 C 1.83333,-0.5 4.16667,-0.5 6.5,-0.5C 3.83333,1.5 1.5,3.83333 -0.5,6.5C -0.5,4.16667 -0.5,1.83333 -0.5,-0.5 Z" />
  </g>
  <g>
    <path style="opacity:1" fill="#fbfdfb"
      d="M 73.5,7.5 C 81.1727,12.5187 86.1727,19.5187 88.5,28.5C 88.8134,31.2469 88.48,33.9135 87.5,36.5C 86.7348,35.3881 85.7348,34.7214 84.5,34.5C 85.0916,31.8728 85.4249,29.2062 85.5,26.5C 82.0897,26.3838 80.7564,28.0504 81.5,31.5C 79.076,31.1924 76.7427,31.5258 74.5,32.5C 72.4978,38.513 70.4978,44.513 68.5,50.5C 67.8333,49.5 67.1667,48.5 66.5,47.5C 65.3629,42.0916 62.0295,39.9249 56.5,41C 52.5071,43.8194 50.8404,47.6527 51.5,52.5C 52.2166,55.3229 53.2166,57.9896 54.5,60.5C 53.5,60.5 52.5,60.5 51.5,60.5C 49.2654,61.2279 47.4321,62.5612 46,64.5C 43.5502,68.6768 41.3835,73.0101 39.5,77.5C 38.4793,76.0986 37.4793,74.7653 36.5,73.5C 32.7115,65.916 30.0449,57.916 28.5,49.5C 28.4078,41.3071 29.4078,33.3071 31.5,25.5C 39.4908,5.16583 53.4908,-0.83417 73.5,7.5 Z" />
  </g>
  <g>
    <path style="opacity:1" fill="#d3eed0"
      d="M 31.5,25.5 C 29.4078,33.3071 28.4078,41.3071 28.5,49.5C 26.7558,41.2 27.7558,33.2 31.5,25.5 Z" />
  </g>
  <g>
    <path style="opacity:1" fill="#4caf4e"
      d="M 81.5,31.5 C 82.6833,33.8457 82.35,36.1791 80.5,38.5C 82.0146,41.737 81.6813,44.737 79.5,47.5C 79.1667,47.1667 78.8333,46.8333 78.5,46.5C 79.5443,44.2324 79.711,41.8991 79,39.5C 78.463,42.0934 77.6296,44.5934 76.5,47C 76.6696,49.5269 77.6696,50.0269 79.5,48.5C 80.7123,50.836 80.379,53.0027 78.5,55C 79.7073,56.3002 80.3739,57.8002 80.5,59.5C 78.7231,59.7863 77.0564,60.4529 75.5,61.5C 73.8228,60.8131 72.1561,60.1465 70.5,59.5C 69.0256,58.5637 68.0256,57.2303 67.5,55.5C 67.366,53.7085 67.6993,52.0418 68.5,50.5C 70.4978,44.513 72.4978,38.513 74.5,32.5C 76.7427,31.5258 79.076,31.1924 81.5,31.5 Z" />
  </g>
  <g>
    <path style="opacity:1" fill="#51ae53"
      d="M 66.5,47.5 C 66.702,49.9496 66.3686,52.283 65.5,54.5C 63.562,58.1692 60.562,59.3359 56.5,58C 54.6997,56.1881 53.0331,54.3548 51.5,52.5C 50.8404,47.6527 52.5071,43.8194 56.5,41C 62.0295,39.9249 65.3629,42.0916 66.5,47.5 Z" />
  </g>
  <g>
    <path style="opacity:1" fill="#afeab3"
      d="M 66.5,47.5 C 67.1667,48.5 67.8333,49.5 68.5,50.5C 67.6993,52.0418 67.366,53.7085 67.5,55.5C 66.8333,55.1667 66.1667,54.8333 65.5,54.5C 66.3686,52.283 66.702,49.9496 66.5,47.5 Z" />
  </g>
  <g>
    <path style="opacity:1" fill="#53ac57"
      d="M 84.5,34.5 C 87.0455,37.771 87.8788,41.4376 87,45.5C 84.954,47.3761 83.1207,49.3761 81.5,51.5C 82.9008,55.5597 82.2341,59.2263 79.5,62.5C 77.8333,62.5 76.1667,62.5 74.5,62.5C 72.5956,62.2624 71.2623,61.2624 70.5,59.5C 72.1561,60.1465 73.8228,60.8131 75.5,61.5C 77.0564,60.4529 78.7231,59.7863 80.5,59.5C 80.3739,57.8002 79.7073,56.3002 78.5,55C 80.379,53.0027 80.7123,50.836 79.5,48.5C 77.6696,50.0269 76.6696,49.5269 76.5,47C 77.6296,44.5934 78.463,42.0934 79,39.5C 79.711,41.8991 79.5443,44.2324 78.5,46.5C 78.8333,46.8333 79.1667,47.1667 79.5,47.5C 81.6813,44.737 82.0146,41.737 80.5,38.5C 82.35,36.1791 82.6833,33.8457 81.5,31.5C 80.7564,28.0504 82.0897,26.3838 85.5,26.5C 85.4249,29.2062 85.0916,31.8728 84.5,34.5 Z" />
  </g>
  <g>
    <path style="opacity:1" fill="#edfaee"
      d="M 51.5,52.5 C 53.0331,54.3548 54.6997,56.1881 56.5,58C 60.562,59.3359 63.562,58.1692 65.5,54.5C 66.1667,54.8333 66.8333,55.1667 67.5,55.5C 68.0256,57.2303 69.0256,58.5637 70.5,59.5C 71.2623,61.2624 72.5956,62.2624 74.5,62.5C 73.791,63.404 72.791,63.7373 71.5,63.5C 68.7748,60.8877 66.1081,61.0544 63.5,64C 60.854,64.4974 58.1873,64.6641 55.5,64.5C 53.8608,63.5275 52.5274,62.1942 51.5,60.5C 52.5,60.5 53.5,60.5 54.5,60.5C 53.2166,57.9896 52.2166,55.3229 51.5,52.5 Z" />
  </g>
  <g>
    <path style="opacity:1" fill="#e4f7e3"
      d="M 88.5,28.5 C 91.337,35.4429 92.1704,42.7762 91,50.5C 87.5673,61.9715 83.0673,72.9715 77.5,83.5C 76.7658,84.9293 75.5991,85.9293 74,86.5C 67.4178,83.9028 60.5845,82.9028 53.5,83.5C 59.7809,82.0648 66.1143,82.3982 72.5,84.5C 75.3143,84.019 76.6476,82.3523 76.5,79.5C 77.6813,76.6377 77.6813,73.6377 76.5,70.5C 78.9032,70.607 80.7365,69.607 82,67.5C 84.3038,60.9216 86.8038,54.4216 89.5,48C 88.8979,46.437 88.0646,46.6037 87,48.5C 85.5207,54.1028 83.354,59.4362 80.5,64.5C 78.6934,65.7991 77.0268,65.6324 75.5,64C 77.0581,63.79 78.3915,63.29 79.5,62.5C 82.2341,59.2263 82.9008,55.5597 81.5,51.5C 83.1207,49.3761 84.954,47.3761 87,45.5C 87.8788,41.4376 87.0455,37.771 84.5,34.5C 85.7348,34.7214 86.7348,35.3881 87.5,36.5C 88.48,33.9135 88.8134,31.2469 88.5,28.5 Z" />
  </g>
  <g>
    <path style="opacity:1" fill="#6cb56d"
      d="M 76.5,70.5 C 74.6002,68.3805 72.9336,66.0472 71.5,63.5C 72.791,63.7373 73.791,63.404 74.5,62.5C 76.1667,62.5 77.8333,62.5 79.5,62.5C 78.3915,63.29 77.0581,63.79 75.5,64C 77.0268,65.6324 78.6934,65.7991 80.5,64.5C 83.354,59.4362 85.5207,54.1028 87,48.5C 88.0646,46.6037 88.8979,46.437 89.5,48C 86.8038,54.4216 84.3038,60.9216 82,67.5C 80.7365,69.607 78.9032,70.607 76.5,70.5 Z" />
  </g>
  <g>
    <path style="opacity:1" fill="#4daf51"
      d="M 71.5,63.5 C 72.9336,66.0472 74.6002,68.3805 76.5,70.5C 77.6813,73.6377 77.6813,76.6377 76.5,79.5C 67.3128,75.4594 57.6461,74.4594 47.5,76.5C 45.8333,76.5 44.1667,76.5 42.5,76.5C 42.4723,72.5163 44.139,71.5163 47.5,73.5C 44.2024,65.857 46.8691,62.857 55.5,64.5C 58.1873,64.6641 60.854,64.4974 63.5,64C 66.1081,61.0544 68.7748,60.8877 71.5,63.5 Z" />
  </g>
  <g>
    <path style="opacity:1" fill="#f7fbf6"
      d="M 76.5,79.5 C 76.6476,82.3523 75.3143,84.019 72.5,84.5C 66.1143,82.3982 59.7809,82.0648 53.5,83.5C 50.1714,83.9985 47.0047,84.9985 44,86.5C 42.7085,84.7513 41.5418,82.918 40.5,81C 42.8981,79.4758 45.2314,77.9758 47.5,76.5C 57.6461,74.4594 67.3128,75.4594 76.5,79.5 Z" />
  </g>
  <g>
    <path style="opacity:1" fill="#eef8ee"
      d="M 67.5,95.5 C 61.8384,94.2343 56.1718,94.2343 50.5,95.5C 48.8857,95.1971 47.5523,94.5305 46.5,93.5C 46.33,92.1779 46.6634,91.0113 47.5,90C 55.5744,86.5823 63.5744,86.749 71.5,90.5C 72.8594,94.0768 71.5261,95.7434 67.5,95.5 Z" />
  </g>
  <g>
    <path style="opacity:1" fill="#56ad58"
      d="M 51.5,60.5 C 52.5274,62.1942 53.8608,63.5275 55.5,64.5C 46.8691,62.857 44.2024,65.857 47.5,73.5C 44.139,71.5163 42.4723,72.5163 42.5,76.5C 44.1667,76.5 45.8333,76.5 47.5,76.5C 45.2314,77.9758 42.8981,79.4758 40.5,81C 41.5418,82.918 42.7085,84.7513 44,86.5C 47.0047,84.9985 50.1714,83.9985 53.5,83.5C 60.5845,82.9028 67.4178,83.9028 74,86.5C 75.5991,85.9293 76.7658,84.9293 77.5,83.5C 75.1829,87.8257 73.6829,92.4924 73,97.5C 71.7949,98.0712 70.6283,98.7379 69.5,99.5C 67.4431,103.263 65.9431,107.263 65,111.5C 64.6174,110.944 64.1174,110.611 63.5,110.5C 62.5,110.167 61.8333,109.5 61.5,108.5C 62.3764,108.631 63.0431,108.298 63.5,107.5C 60.0227,106.833 56.6893,106.166 53.5,105.5C 57.5546,105.824 61.5546,105.491 65.5,104.5C 65.8627,103.817 66.1961,103.15 66.5,102.5C 68.0348,99.6702 67.0348,98.3369 63.5,98.5C 65.2191,97.9779 66.5525,96.9779 67.5,95.5C 71.5261,95.7434 72.8594,94.0768 71.5,90.5C 63.5744,86.749 55.5744,86.5823 47.5,90C 46.6634,91.0113 46.33,92.1779 46.5,93.5C 43.1362,94.2107 40.8029,93.044 39.5,90C 40.5914,87.9361 40.7581,85.7695 40,83.5C 38.6656,81.4969 37.1656,79.9969 35.5,79C 36.4061,77.3005 36.7394,75.4672 36.5,73.5C 37.4793,74.7653 38.4793,76.0986 39.5,77.5C 41.3835,73.0101 43.5502,68.6768 46,64.5C 47.4321,62.5612 49.2654,61.2279 51.5,60.5 Z" />
  </g>
  <g>
    <path style="opacity:1" fill="#91c991"
      d="M 53.5,99.5 C 56.6248,98.5206 59.9581,98.1872 63.5,98.5C 67.0348,98.3369 68.0348,99.6702 66.5,102.5C 66.5858,101.504 66.2524,100.671 65.5,100C 61.5138,99.5012 57.5138,99.3345 53.5,99.5 Z" />
  </g>
  <g>
    <path style="opacity:1" fill="#f5fcf4"
      d="M 53.5,99.5 C 57.5138,99.3345 61.5138,99.5012 65.5,100C 66.2524,100.671 66.5858,101.504 66.5,102.5C 66.1961,103.15 65.8627,103.817 65.5,104.5C 61.5546,105.491 57.5546,105.824 53.5,105.5C 53.2488,103.83 52.5822,102.33 51.5,101C 52.0442,100.283 52.7109,99.7828 53.5,99.5 Z" />
  </g>
  <g>
    <path style="opacity:1" fill="#e9faeb"
      d="M 61.5,108.5 C 61.8333,109.5 62.5,110.167 63.5,110.5C 63.5,111.5 63.5,112.5 63.5,113.5C 60.994,116.086 58.494,116.086 56,113.5C 55.6577,109.68 57.491,108.014 61.5,108.5 Z" />
  </g>
  <g>
    <path style="opacity:1" fill="rgba(6,15,4,0)"
      d="M 119.5,111.5 C 119.5,114.167 119.5,116.833 119.5,119.5C 116.833,119.5 114.167,119.5 111.5,119.5C 112.848,118.399 114.348,117.399 116,116.5C 117.03,114.654 118.196,112.987 119.5,111.5 Z" />
  </g>
  <g>
    <path style="opacity:1" fill="rgba(3,8,2,0)"
      d="M -0.5,111.5 C 1.11698,114.784 3.45031,117.451 6.5,119.5C 4.16667,119.5 1.83333,119.5 -0.5,119.5C -0.5,116.833 -0.5,114.167 -0.5,111.5 Z" />
  </g>
</svg>
