<svg width="349" height="196" viewBox="0 0 349 196" fill="none" xmlns="http://www.w3.org/2000/svg">
<rect width="349" height="196" rx="8" fill="#1098AB"/>
<path fill-rule="evenodd" clip-rule="evenodd" d="M51 196C52.5321 172.125 59.3663 147.327 66.3347 124.815C74.7852 97.5139 98.7948 79.0749 123.4 60.1787C132.791 52.9666 142.268 45.6879 151 37.8246C161.006 28.8144 169.875 18.3569 178.683 7.97108C180.947 5.30071 183.208 2.63508 185.483 0H341C345.418 0 349 3.58172 349 8V188C349 192.418 345.418 196 341 196H51Z" fill="#13A7BB"/>
<path fill-rule="evenodd" clip-rule="evenodd" d="M176 196C176.889 172.125 180.857 147.327 184.902 124.815C189.808 97.5139 203.747 79.0749 218.031 60.1787C223.482 52.9666 228.985 45.6879 234.054 37.8246C239.863 28.8144 245.011 18.3569 250.125 7.9711C251.439 5.30072 252.752 2.63508 254.072 0H341C345.418 0 349 3.58172 349 8V188C349 192.418 345.418 196 341 196H176Z" fill="#28B7CA"/>
</svg>
